PathFileType	4	(X/Y/Z)	 s10c0001.trc
DataRate	CameraRate	NumFrames	NumMarkers	Units	OrigDataRate	OrigDataStartFrame	OrigNumFrames
200	200	4	49	mm	200	751	2000
Frame#	Time	racr			lacr			c7			jug			rlel			rdr			llel			ldr			s2			lic			ric			lasi			rasi			rpsi			lpsi			rgt			lgt			rth1			rth2			rth3			rth4			rlfc			rmfc			rsh1			rsh2			rsh3			rsh4			rlmal			rmmal			rcal			rtoe			rmt5			rmt1			lth1			lth2			lth4			lth3			llfc			lmfc			llmal			lmmal			lcal			lmt1			lmt5			lsh1			lsh2			lsh3			lsh4			ltoe			
		X1	Y1	Z1	X2	Y2	Z2	X3	Y3	Z3	X4	Y4	Z4	X5	Y5	Z5	X6	Y6	Z6	X7	Y7	Z7	X8	Y8	Z8	X9	Y9	Z9	X10	Y10	Z10	X11	Y11	Z11	X12	Y12	Z12	X13	Y13	Z13	X14	Y14	Z14	X15	Y15	Z15	X16	Y16	Z16	X17	Y17	Z17	X18	Y18	Z18	X19	Y19	Z19	X20	Y20	Z20	X21	Y21	Z21	X22	Y22	Z22	X23	Y23	Z23	X24	Y24	Z24	X25	Y25	Z25	X26	Y26	Z26	X27	Y27	Z27	X28	Y28	Z28	X29	Y29	Z29	X30	Y30	Z30	X31	Y31	Z31	X32	Y32	Z32	X33	Y33	Z33	X34	Y34	Z34	X35	Y35	Z35	X36	Y36	Z36	X37	Y37	Z37	X38	Y38	Z38	X39	Y39	Z39	X40	Y40	Z40	X41	Y41	Z41	X42	Y42	Z42	X43	Y43	Z43	X44	Y44	Z44	X45	Y45	Z45	X46	Y46	Z46	X47	Y47	Z47	X48	Y48	Z48	X49	Y49	Z49	
751	3.7550	461.496452	1378.153222	684.071033	481.724779	1387.285751	305.870282	429.803190	1426.889723	485.722923	561.943833	1375.632303	502.730696	453.107802	1122.109865	816.838176	473.845952	910.247393	929.892950	481.772586	1109.456345	194.608532	536.489103	907.328552	90.252086	386.113147	931.913248	497.136633	534.213260	994.061435	351.449320	538.187839	1001.672032	648.919369	596.796813	918.555784	383.726563	580.909366	907.697717	638.823847	404.734975	972.444882	559.308007	405.223372	984.093643	445.758638	464.082528	853.889068	684.471477	470.488051	854.544043	308.684442	483.843068	729.280289	715.021436	507.298442	643.640710	700.780099	484.398752	561.635964	691.994208	543.196868	646.183983	691.945849	493.342154	459.314634	675.140598	481.344632	441.258044	562.585201	447.527184	360.009555	717.020940	468.712452	273.192956	714.799399	444.162471	190.566379	716.753220	500.363852	274.184937	691.584618	454.033327	84.987443	709.939577	483.526606	95.904395	630.089309	420.184238	50.396957	655.059613	651.987441	85.075449	711.275513	566.071711	42.127978	755.859861	609.736667	46.716447	658.373080	492.782021	746.208820	283.093593	515.308372	663.831202	294.658215	549.416131	666.237555	305.159917	493.645636	577.879089	301.229372	495.152886	472.782620	315.186778	490.821787	454.692731	425.607902	450.708313	103.879423	284.053821	469.826366	100.972566	362.319178	411.028518	58.726948	327.078016	612.098828	47.353338	347.314066	579.644711	46.094992	245.193627	445.848958	364.315053	270.024841	472.147941	281.484178	275.815500	451.720082	194.340114	273.330579	501.224035	283.109839	301.592286	653.381325	92.349437	295.243481	
752	3.7600	461.483439	1378.143226	684.046018	481.756210	1387.299412	305.847209	429.832099	1426.889192	485.685675	561.960790	1375.634862	502.727161	453.131456	1122.153512	816.867482	473.869712	910.270577	929.915855	481.831380	1109.444740	194.581140	536.543420	907.337317	90.232153	386.115389	931.911161	497.136243	534.252411	994.063673	351.448848	538.176972	1001.669272	648.911344	596.819160	918.573082	383.748681	580.929020	907.702919	638.844656	404.700038	972.459473	559.300193	405.211561	984.089632	445.730768	464.074073	853.882323	684.463035	470.501831	854.542815	308.693236	483.828560	729.279040	715.020758	507.289595	643.633365	700.769836	484.391567	561.614684	691.991169	543.177414	646.188659	691.929894	493.347382	459.318881	675.146748	481.335365	441.255642	562.578381	447.512991	359.974161	717.012192	468.717823	273.181339	714.799189	444.163896	190.568542	716.762408	500.373462	274.191275	691.608383	454.022828	84.983887	709.943873	483.519311	95.868647	630.105752	420.203081	50.368182	655.060576	651.979195	85.074093	711.268931	566.073212	42.133696	755.863973	609.744816	46.721216	658.397536	492.792944	746.193578	283.087526	515.341905	663.796810	294.675813	549.419167	666.258542	305.174669	493.737316	577.890559	301.293231	495.183719	472.796394	315.198913	490.800042	454.678427	425.597517	450.709722	103.883284	284.023400	469.824973	100.957709	362.320506	411.037188	58.731356	327.084908	612.086880	47.352517	347.304676	579.639027	46.084708	245.169708	445.870116	364.320548	270.022765	472.169487	281.488425	275.808231	451.720231	194.333661	273.349728	501.236869	283.122087	301.616875	653.373123	92.344247	295.245766	
753	3.7650	461.479559	1378.144160	684.046555	481.768444	1387.300355	305.848126	429.848522	1426.870520	485.650468	561.949727	1375.642892	502.722844	453.137367	1122.140334	816.873889	473.898545	910.281745	929.953712	481.822669	1109.455717	194.554243	536.587004	907.344487	90.207511	386.132174	931.919831	497.125969	534.250954	994.062763	351.443225	538.190578	1001.681979	648.900747	596.842037	918.549651	383.743397	580.937264	907.709101	638.843259	404.699158	972.446044	559.303737	405.232001	984.083664	445.728402	464.089771	853.891447	684.452212	470.511051	854.541398	308.683356	483.843677	729.262172	715.015235	507.289950	643.628123	700.777070	484.402008	561.629642	692.002675	543.198453	646.178393	691.928238	493.349256	459.318216	675.147768	481.305935	441.227751	562.584401	447.528718	359.996777	717.007530	468.719330	273.195886	714.807734	444.177315	190.565531	716.777380	500.393971	274.198909	691.611130	454.021947	84.979719	709.945114	483.543695	95.908574	630.118108	420.201166	50.385195	655.062655	651.985339	85.071104	711.277148	566.082888	42.135227	755.858354	609.731813	46.722195	658.380080	492.803022	746.213674	283.087208	515.359073	663.799552	294.734819	549.416805	666.262352	305.166610	493.759629	577.876714	301.290434	495.185199	472.792817	315.201024	490.829633	454.689828	425.600970	450.725427	103.879162	284.034062	469.829606	100.969495	362.320532	411.037347	58.710464	327.087032	612.087562	47.349954	347.305422	579.643651	46.102933	245.173754	445.880983	364.325317	270.030868	472.202458	281.496610	275.820773	451.754122	194.344239	273.326368	501.261133	283.117262	301.624415	653.385055	92.341011	295.247189	
754	3.7700	461.488050	1378.130383	684.026077	481.759950	1387.327667	305.857674	429.838022	1426.879728	485.677809	561.958998	1375.641237	502.696441	453.178043	1122.151094	816.889457	473.911889	910.303932	929.994297	481.854392	1109.484332	194.562814	536.614882	907.347913	90.190994	386.133230	931.920961	497.139435	534.244471	994.073541	351.428173	538.191804	1001.674584	648.913519	596.829107	918.556808	383.743900	580.948213	907.714995	638.846347	404.737405	972.448825	559.304065	405.237150	984.095973	445.720886	464.102064	853.906677	684.463139	470.516358	854.540652	308.687209	483.859515	729.299957	715.027473	507.320764	643.629301	700.776108	484.422114	561.614417	691.999046	543.196318	646.184581	691.947152	493.355454	459.340799	675.156872	481.282118	441.209320	562.584172	447.534623	359.999415	717.023173	468.715480	273.183012	714.805069	444.135458	190.568087	716.750185	500.390295	274.186119	691.590136	454.042336	84.987399	709.935370	483.533539	95.891394	630.119477	420.214120	50.354885	655.048876	651.995474	85.060558	711.289939	566.065932	42.129568	755.866294	609.735080	46.710589	658.382077	492.810320	746.201379	283.080302	515.369870	663.819453	294.675263	549.442530	666.262173	305.158634	493.745922	577.889675	301.307264	495.195908	472.802678	315.198725	490.825728	454.691158	425.597104	450.712901	103.879581	284.038224	469.845301	100.978740	362.321284	411.031534	58.718853	327.078699	612.107299	47.357403	347.314894	579.640139	46.074578	245.179979	445.893401	364.310384	270.022330	472.167195	281.484425	275.820733	451.746259	194.336468	273.330175	501.232252	283.099162	301.611006	653.364125	92.358785	295.256411	
